<svg width="18" height="18" viewBox="0 0 18 18" fill="none" xmlns="http://www.w3.org/2000/svg">
  <path d="M4.22251 9.81L4.21501 13.3275C4.21501 14.28 4.95001 15.3 5.85001 15.6L8.24251 16.395C8.65501 16.53 9.33751 16.53 9.75751 16.395L12.15 15.6C13.05 15.3 13.785 14.28 13.785 13.3275V9.8475M16.05 11.25V6.75M7.53751 1.8975L3.02251 4.845C1.57501 5.79 1.57501 7.905 3.02251 8.85L7.53751 11.7975C8.34751 12.33 9.68251 12.33 10.4925 11.7975L14.985 8.85C16.425 7.905 16.425 5.7975 14.985 4.8525L10.4925 1.905C9.68251 1.365 8.34751 1.365 7.53751 1.8975Z" stroke="white" stroke-width="1.5" stroke-linecap="round" stroke-linejoin="round"/>
</svg>